<?xml version="1.0" standalone="no"?>
<!DOCTYPE svg PUBLIC "-//W3C//DTD SVG 20010904//EN"
 "http://www.w3.org/TR/2001/REC-SVG-20010904/DTD/svg10.dtd">
<svg version="1.0" xmlns="http://www.w3.org/2000/svg"
 width="240.000000pt" height="240.000000pt" viewBox="0 0 240.000000 240.000000"
 preserveAspectRatio="xMidYMid meet">
<metadata>
Created by potrace 1.14, written by Peter Selinger 2001-2017
</metadata>
<g transform="translate(0.000000,240.000000) scale(0.100000,-0.100000)"
fill="#000000" stroke="none">
<path d="M846 2091 c-3 -5 -8 -26 -12 -47 -6 -41 -61 -283 -69 -306 -2 -7 -7
-24 -9 -38 -6 -30 -4 -22 -60 -247 -25 -100 -48 -196 -51 -212 -3 -17 -10 -42
-15 -56 -10 -27 -14 -75 -5 -75 6 0 399 105 443 119 40 12 40 13 7 -124 -20
-86 -99 -433 -110 -485 -2 -8 -13 -55 -25 -105 -12 -49 -23 -97 -25 -105 -2
-8 -8 -35 -14 -60 -5 -25 -13 -58 -16 -75 -3 -16 -7 -34 -9 -40 -19 -70 -37
-167 -32 -172 10 -11 21 7 71 117 58 130 86 190 140 305 23 50 89 194 148 320
253 549 367 797 383 829 20 42 18 48 -18 43 -37 -6 -429 -107 -440 -114 -17
-10 -12 7 73 252 15 44 43 125 63 180 20 55 36 101 36 102 0 8 -450 2 -454 -6z"/>
</g>
</svg>
